<svg xmlns="http://www.w3.org/2000/svg" xmlns:xlink="http://www.w3.org/1999/xlink" aria-hidden="true" role="img" class="iconify iconify--logos" width="35.93" height="32" preserveAspectRatio="xMidYMid meet" viewBox="0 0 256 228"><path fill="#00D8FF" d="M210.483 73.824a171.49 171.49 0 0 0-8.24-2.597c.465-1.9.893-3.777 1.273-5.621c6.238-30.281 2.16-54.676-11.769-62.708c-13.355-7.7-35.196.329-57.254 19.526a171.23 171.23 0 0 0-6.375 5.848a155.866 155.866 0 0 0-4.241-3.917C100.759 3.829 77.587-4.822 63.673 3.233C50.33 10.957 46.379 33.89 51.986 62.588a170.974 170.974 0 0 0 1.892 8.48c-3.28.932-6.445 1.924-9.474 2.98C17.309 83.498 0 98.307 0 113.668c0 15.865 18.582 31.778 46.812 41.427a145.52 145.52 0 0 0 6.921 2.165a167.467 167.467 0 0 0-2.01 9.138c-5.354 28.2-1.173 50.591 12.134 58.266c13.744 7.926 36.812-.22 59.273-19.855a145.567 145.567 0 0 0 5.342-4.923a168.064 168.064 0 0 0 6.92 6.314c21.758 18.722 43.246 26.282 56.54 18.586c13.731-7.949 18.194-32.003 12.4-61.268a145.016 145.016 0 0 0-1.535-6.842c1.62-.48 3.21-.974 4.76-1.488c29.348-9.723 48.443-25.443 48.443-41.52c0-15.417-17.868-30.326-45.517-39.844Zm-6.365 70.984c-1.4.463-2.836.91-4.3 1.345c-3.24-10.257-7.612-21.163-12.963-32.432c5.106-11 9.31-21.767 12.459-31.957a145.95 145.95 0 0 1 7.535 2.357c22.953 8.84 39.088 21.379 39.088 30.927c0 10.168-16.789 22.953-41.82 29.76ZM156.154 168.9c-5.862 10.15-12.075 19.426-18.468 27.7a143.525 143.525 0 0 1-5.283 4.761c-19.724 17.09-38.333 24.143-48.144 18.485c-10.272-5.925-14.18-25.747-9.26-50.638a157.23 157.23 0 0 1 1.862-8.45c10.463 2.425 21.722 4.123 33.516 5.02c7.066 9.769 14.469 18.648 21.97 26.488ZM82.875 106.053c2.599 4.502 5.3 8.93 8.099 13.274a334.023 334.023 0 0 1-8.099 13.275c-7.005-.66-13.768-1.588-20.216-2.756c1.96-6.805 4.676-13.969 8.098-21.378c3.46-7.478 7.38-14.545 12.118-21.052c6.318 1.076 12.952 1.932 19.77 2.561c-2.798 4.344-5.5 8.775-8.099 13.276Zm10.536 59.843a172.68 172.68 0 0 1-21.97-6.63c3.976-9.183 8.874-18.75 14.516-28.52c5.676-9.826 11.826-19.03 18.259-27.454a186.908 186.908 0 0 1 24.456-2.093a195.094 195.094 0 0 1 24.455 2.093c6.467 8.424 12.648 17.628 18.325 27.454c5.684 9.837 10.579 19.396 14.497 28.511a177.66 177.66 0 0 1-22.042 6.704a194.44 194.44 0 0 1-24.508-2.135a190.322 190.322 0 0 1-25.988 2.07Zm34.965 24.648c7.485-7.864 14.895-16.794 21.969-26.598c11.691-.87 22.86-2.53 33.261-4.918a167.81 167.81 0 0 1 1.834 8.132c5.032 25.371 1.196 45.674-9.476 51.832c-10.225 5.906-29.645-1.082-49.756-18.873a135.726 135.726 0 0 1-5.833-5.575Zm27.816-77.399c-2.599-4.502-5.3-8.93-8.099-13.275c2.799-4.344 5.5-8.773 8.099-13.275c6.858.559 13.43 1.38 19.652 2.442c-3.414 7.399-7.346 15.11-11.933 23.005c-2.411 4.152-4.878 8.175-7.399 12.073c-6.303-1.067-12.905-1.91-19.65-2.546Zm-35.15-80.73c7.448 7.79 14.836 16.654 21.905 26.39c-7.19.342-14.46.342-21.751.05a334.91 334.91 0 0 1-21.749-.05c7.07-9.736 14.46-18.6 21.907-26.39a139.78 139.78 0 0 1 5.341-4.869c19.243-16.67 37.236-24.026 47.306-18.21c10.503 6.065 14.63 26.716 9.016 55.28a158.6 158.6 0 0 1-1.18 5.194c-10.381-2.445-21.553-4.152-33.234-5.04c-7.133-9.836-14.575-18.742-22.103-26.593ZM86.237 48.5c-5.07-26.19-.961-45.98 9.51-52.028c10.943-6.32 31.252 1.48 51.86 19.825a152.498 152.498 0 0 1 4.107 3.79c-7.53 7.855-14.976 16.77-22.107 26.622c-11.746.903-22.987 2.591-33.462 5.003a161.226 161.226 0 0 1-1.774-7.66c-.452-1.758-.855-3.51-1.207-5.257Zm-33.8 70.175c-7.87-2.29-15.172-4.948-21.678-7.89c-10.32-4.67-18.217-10.038-22.805-15.399c-4.37-5.11-5.954-9.663-5.954-13.718c0-10.186 17.048-22.972 40.186-29.783c2.87-.844 5.88-1.639 8.995-2.388c3.27 10.275 7.597 21.125 12.85 32.292c-5.378 11.403-9.776 22.354-12.992 32.49a140.32 140.32 0 0 1-6.474-1.94Zm34.786 79.165c-10.833-6.251-14.797-25.608-9.863-50.298a156.53 156.53 0 0 1 1.91-8.712c10.519 2.47 21.825 4.2 33.606 5.126c7.105 9.739 14.51 18.627 22.008 26.455a140.026 140.026 0 0 1-5.212 4.795c-19.382 16.537-37.602 23.437-48.086 17.46ZM128 134.085c-11.282 0-20.417-9.135-20.417-20.417c0-11.283 9.135-20.418 20.417-20.418c11.282 0 20.418 9.135 20.418 20.418c0 11.282-9.136 20.417-20.418 20.417Z"></path></svg>
